<svg width="23" height="24" viewBox="0 0 23 24" fill="none" xmlns="http://www.w3.org/2000/svg">
<path d="M6.34881 15.7941H19.591C20.341 15.7941 20.9816 15.5285 21.5129 14.9973C22.0441 14.466 22.3097 13.8254 22.3097 13.0754V7.52069C22.3097 7.52069 22.3097 7.51678 22.3097 7.50897C22.3097 7.50116 22.3097 7.49725 22.3097 7.49725C22.3097 7.48163 22.3097 7.47382 22.3097 7.47382C22.3097 7.47382 22.3097 7.466 22.3097 7.45038C22.3097 7.45038 22.3097 7.44647 22.3097 7.43866C22.3097 7.43085 22.3097 7.42694 22.3097 7.42694C22.3097 7.42694 22.3058 7.42303 22.298 7.41522C22.2902 7.40741 22.2863 7.39569 22.2863 7.38007C22.2863 7.38007 22.2863 7.37616 22.2863 7.36835C22.2863 7.36053 22.2863 7.35663 22.2863 7.35663C22.2863 7.35663 22.2863 7.35272 22.2863 7.34491C22.2863 7.3371 22.2863 7.33319 22.2863 7.33319C22.2863 7.31757 22.2824 7.30975 22.2746 7.30975C22.2668 7.30975 22.2629 7.30194 22.2629 7.28632C22.2629 7.28632 22.2629 7.28241 22.2629 7.2746C22.2629 7.26678 22.2629 7.26288 22.2629 7.26288C22.2629 7.26288 22.259 7.25897 22.2511 7.25116C22.2433 7.24335 22.2394 7.23944 22.2394 7.23944C22.2394 7.22382 22.2394 7.216 22.2394 7.216C22.2238 7.20038 22.216 7.19257 22.216 7.19257C22.216 7.19257 22.216 7.18475 22.216 7.16913C22.216 7.16913 22.2082 7.16132 22.1926 7.14569C22.1926 7.14569 22.1926 7.14178 22.1926 7.13397C22.1926 7.12616 22.1926 7.12225 22.1926 7.12225C22.1769 7.12225 22.1691 7.11835 22.1691 7.11053C22.1691 7.10272 22.1691 7.09882 22.1691 7.09882C22.1691 7.09882 22.1652 7.09491 22.1574 7.0871C22.1496 7.07928 22.1457 7.07538 22.1457 7.07538C22.1457 7.07538 22.1418 7.07147 22.134 7.06366C22.1261 7.05585 22.1222 7.05194 22.1222 7.05194C22.1222 7.05194 22.1183 7.04803 22.1105 7.04022C22.1027 7.03241 22.0988 7.0285 22.0988 7.0285C22.0988 7.0285 22.0949 7.0246 22.0871 7.01678C22.0793 7.00897 22.0754 7.00507 22.0754 7.00507C22.0754 7.00507 22.0715 7.00116 22.0636 6.99335C22.0558 6.98553 22.0519 6.98163 22.0519 6.98163C22.0519 6.98163 22.048 6.97772 22.0402 6.96991C22.0324 6.9621 22.0285 6.95819 22.0285 6.95819C22.0129 6.95819 22.0051 6.95819 22.0051 6.95819C21.9894 6.95819 21.9816 6.95428 21.9816 6.94647C21.9816 6.93866 21.9738 6.93475 21.9582 6.93475C21.9582 6.93475 21.9582 6.93085 21.9582 6.92303C21.9582 6.91522 21.9504 6.91132 21.9347 6.91132C21.9347 6.91132 21.9308 6.91132 21.923 6.91132C21.9152 6.91132 21.9113 6.91132 21.9113 6.91132C21.9113 6.89569 21.9074 6.88788 21.8996 6.88788C21.8918 6.88788 21.8879 6.88788 21.8879 6.88788C21.8722 6.88788 21.8644 6.88788 21.8644 6.88788C21.8644 6.88788 21.8566 6.88788 21.841 6.88788C21.841 6.87225 21.8371 6.86444 21.8293 6.86444C21.8215 6.86444 21.8176 6.86444 21.8176 6.86444C21.8176 6.86444 21.8136 6.86444 21.8058 6.86444C21.798 6.86444 21.7941 6.86444 21.7941 6.86444C21.7941 6.86444 21.7902 6.86444 21.7824 6.86444C21.7746 6.86444 21.7629 6.86444 21.7472 6.86444C21.7472 6.86444 21.7472 6.86053 21.7472 6.85272C21.7472 6.84491 21.7394 6.841 21.7238 6.841L4.96599 4.54413V2.20038C4.96599 2.18475 4.96599 2.17303 4.96599 2.16522C4.96599 2.15741 4.96599 2.14569 4.96599 2.13007C4.96599 2.13007 4.96599 2.12225 4.96599 2.10663C4.96599 2.10663 4.96599 2.10272 4.96599 2.09491C4.96599 2.0871 4.96599 2.07538 4.96599 2.05975C4.95037 2.05975 4.94256 2.05585 4.94256 2.04803C4.94256 2.04022 4.94256 2.03632 4.94256 2.03632C4.94256 2.02069 4.94256 2.01288 4.94256 2.01288C4.94256 1.99725 4.94256 1.98553 4.94256 1.97772C4.94256 1.96991 4.93474 1.966 4.91912 1.966C4.91912 1.966 4.91912 1.9621 4.91912 1.95428C4.91912 1.94647 4.91912 1.94257 4.91912 1.94257C4.91912 1.92694 4.91912 1.91913 4.91912 1.91913C4.91912 1.91913 4.91131 1.91132 4.89568 1.89569C4.89568 1.89569 4.89568 1.89178 4.89568 1.88397C4.89568 1.87616 4.89568 1.87225 4.89568 1.87225C4.89568 1.87225 4.89177 1.86835 4.88396 1.86053C4.87615 1.85272 4.87224 1.84882 4.87224 1.84882C4.87224 1.84882 4.87224 1.84491 4.87224 1.8371C4.87224 1.82928 4.86443 1.82538 4.84881 1.82538C4.84881 1.82538 4.84881 1.82147 4.84881 1.81366C4.84881 1.80585 4.84881 1.80194 4.84881 1.80194C4.84881 1.80194 4.8449 1.79803 4.83709 1.79022C4.82927 1.78241 4.82537 1.7785 4.82537 1.7785C4.82537 1.7785 4.82146 1.7746 4.81365 1.76678C4.80584 1.75897 4.80193 1.75507 4.80193 1.75507C4.80193 1.75507 4.79802 1.75116 4.79021 1.74335C4.7824 1.73553 4.77849 1.73163 4.77849 1.73163C4.77849 1.73163 4.77849 1.72772 4.77849 1.71991C4.77849 1.7121 4.77068 1.70819 4.75506 1.70819C4.75506 1.70819 4.75115 1.70428 4.74334 1.69647C4.73552 1.68866 4.73162 1.68475 4.73162 1.68475C4.73162 1.68475 4.72771 1.68085 4.7199 1.67303C4.71209 1.66522 4.70818 1.66132 4.70818 1.66132C4.70818 1.66132 4.70427 1.66132 4.69646 1.66132C4.68865 1.66132 4.68474 1.6535 4.68474 1.63788C4.66912 1.63788 4.6574 1.63397 4.64959 1.62616C4.64177 1.61835 4.63787 1.61444 4.63787 1.61444C4.62224 1.59882 4.60662 1.591 4.59099 1.591C4.57537 1.591 4.56756 1.58319 4.56756 1.56757L0.934743 0.0441284C0.762868 -0.0183716 0.590993 -0.0144653 0.419118 0.0558472C0.247243 0.12616 0.122243 0.239441 0.0441176 0.395691C-0.0183824 0.567566 -0.0144761 0.739441 0.0558364 0.911316C0.126149 1.08319 0.247243 1.20819 0.419118 1.28632L3.63006 2.64569V17.2238C3.63006 17.9113 3.86052 18.5129 4.32146 19.0285C4.7824 19.5441 5.34099 19.841 5.99724 19.9191C5.88787 20.1223 5.79802 20.341 5.72771 20.5754C5.6574 20.8098 5.62224 21.0519 5.62224 21.3019C5.62224 22.0519 5.88396 22.6887 6.4074 23.2121C6.93084 23.7355 7.56756 23.9973 8.31756 23.9973C9.05193 23.9973 9.68084 23.7355 10.2043 23.2121C10.7277 22.6887 10.9894 22.0519 10.9894 21.3019C10.9894 21.0676 10.9582 20.8332 10.8957 20.5988C10.8332 20.3644 10.7472 20.1457 10.6379 19.9426H16.6144C16.5051 20.1457 16.4152 20.3644 16.3449 20.5988C16.2746 20.8332 16.2394 21.0676 16.2394 21.3019C16.2394 22.0519 16.5051 22.6887 17.0363 23.2121C17.5676 23.7355 18.2004 23.9973 18.9347 23.9973C19.6691 23.9973 20.3019 23.7355 20.8332 23.2121C21.3644 22.6887 21.6301 22.0519 21.6301 21.3019C21.6301 20.5676 21.3644 19.9387 20.8332 19.4152C20.3019 18.8918 19.6691 18.6301 18.9347 18.6301H6.34881C5.97381 18.6301 5.64959 18.4933 5.37615 18.2199C5.10271 17.9465 4.96599 17.6144 4.96599 17.2238V15.4191C5.16912 15.5441 5.38787 15.6379 5.62224 15.7004C5.85662 15.7629 6.0988 15.7941 6.34881 15.7941ZM9.67693 21.3019C9.67693 21.6769 9.54412 21.9973 9.27849 22.2629C9.01287 22.5285 8.69256 22.6613 8.31756 22.6613C7.94256 22.6613 7.62224 22.5285 7.35662 22.2629C7.09099 21.9973 6.95818 21.6769 6.95818 21.3019C6.95818 20.9269 7.09099 20.6066 7.35662 20.341C7.62224 20.0754 7.94256 19.9426 8.31756 19.9426C8.69256 19.9426 9.01287 20.0754 9.27849 20.341C9.54412 20.6066 9.67693 20.9269 9.67693 21.3019ZM20.2941 21.3019C20.2941 21.6769 20.1613 21.9973 19.8957 22.2629C19.6301 22.5285 19.3097 22.6613 18.9347 22.6613C18.5597 22.6613 18.2394 22.5285 17.9738 22.2629C17.7082 21.9973 17.5754 21.6769 17.5754 21.3019C17.5754 20.9269 17.7082 20.6066 17.9738 20.341C18.2394 20.0754 18.5597 19.9426 18.9347 19.9426C19.3097 19.9426 19.6301 20.0754 19.8957 20.341C20.1613 20.6066 20.2941 20.9269 20.2941 21.3019ZM19.591 14.4582H6.34881C5.97381 14.4582 5.64959 14.3254 5.37615 14.0598C5.10271 13.7941 4.96599 13.466 4.96599 13.0754V5.88007L20.9738 8.08319V13.0754C20.9738 13.466 20.8371 13.7941 20.5636 14.0598C20.2902 14.3254 19.966 14.4582 19.591 14.4582Z" fill="#1F1E17"/>
</svg>
